<?xml version="1.0" encoding="UTF-8" standalone="no"?>
<svg
   xmlns:dc="http://purl.org/dc/elements/1.1/"
   xmlns:cc="http://creativecommons.org/ns#"
   xmlns:rdf="http://www.w3.org/1999/02/22-rdf-syntax-ns#"
   xmlns:svg="http://www.w3.org/2000/svg"
   xmlns="http://www.w3.org/2000/svg"
   xmlns:xlink="http://www.w3.org/1999/xlink"
   version="1.1"
   id="svg4363"
   viewBox="0 0 116.11166 129.06079"
   height="36.423824mm"
   width="32.769291mm">
  <defs
     id="defs4365">
    <clipPath
       id="SVGID_6_">
      <use
         height="100%"
         width="100%"
         y="0"
         x="0"
         style="overflow:visible"
         id="use37"
         overflow="visible"
         xlink:href="#SVGID_5_" />
    </clipPath>
    <clipPath
       id="clipPath4341">
      <use
         height="100%"
         width="100%"
         y="0"
         x="0"
         style="overflow:visible"
         id="use4343"
         overflow="visible"
         xlink:href="#SVGID_5_" />
    </clipPath>
    <clipPath
       id="SVGID_4_">
      <use
         height="100%"
         width="100%"
         y="0"
         x="0"
         style="overflow:visible"
         id="use25"
         overflow="visible"
         xlink:href="#SVGID_3_" />
    </clipPath>
    <clipPath
       id="clipPath4347">
      <use
         height="100%"
         width="100%"
         y="0"
         x="0"
         style="overflow:visible"
         id="use4349"
         overflow="visible"
         xlink:href="#SVGID_3_" />
    </clipPath>
    <clipPath
       id="SVGID_2_">
      <use
         height="100%"
         width="100%"
         y="0"
         x="0"
         style="overflow:visible"
         id="use13"
         overflow="visible"
         xlink:href="#SVGID_1_" />
    </clipPath>
    <clipPath
       id="clipPath4353">
      <use
         height="100%"
         width="100%"
         y="0"
         x="0"
         style="overflow:visible"
         id="use4355"
         overflow="visible"
         xlink:href="#SVGID_1_" />
    </clipPath>
    <clipPath
       id="SVGID_6_-3">
      <use
         height="100%"
         width="100%"
         y="0"
         x="0"
         style="overflow:visible"
         id="use37-6"
         overflow="visible"
         xlink:href="#SVGID_5_" />
    </clipPath>
    <clipPath
       id="clipPath4341-7">
      <use
         height="100%"
         width="100%"
         y="0"
         x="0"
         style="overflow:visible"
         id="use4343-5"
         overflow="visible"
         xlink:href="#SVGID_5_" />
    </clipPath>
    <clipPath
       id="SVGID_4_-3">
      <use
         height="100%"
         width="100%"
         y="0"
         x="0"
         style="overflow:visible"
         id="use25-5"
         overflow="visible"
         xlink:href="#SVGID_3_" />
    </clipPath>
    <clipPath
       id="clipPath4347-6">
      <use
         height="100%"
         width="100%"
         y="0"
         x="0"
         style="overflow:visible"
         id="use4349-2"
         overflow="visible"
         xlink:href="#SVGID_3_" />
    </clipPath>
    <clipPath
       id="SVGID_2_-9">
      <use
         height="100%"
         width="100%"
         y="0"
         x="0"
         style="overflow:visible"
         id="use13-1"
         overflow="visible"
         xlink:href="#SVGID_1_" />
    </clipPath>
    <clipPath
       id="clipPath4353-2">
      <use
         height="100%"
         width="100%"
         y="0"
         x="0"
         style="overflow:visible"
         id="use4355-7"
         overflow="visible"
         xlink:href="#SVGID_1_" />
    </clipPath>
    <clipPath
       id="SVGID_6_-2">
      <use
         height="100%"
         width="100%"
         y="0"
         x="0"
         style="overflow:visible"
         id="use37-61"
         overflow="visible"
         xlink:href="#SVGID_5_" />
    </clipPath>
    <clipPath
       id="clipPath5001">
      <use
         height="100%"
         width="100%"
         y="0"
         x="0"
         style="overflow:visible"
         id="use5003"
         overflow="visible"
         xlink:href="#SVGID_5_" />
    </clipPath>
    <clipPath
       id="SVGID_4_-8">
      <use
         height="100%"
         width="100%"
         y="0"
         x="0"
         style="overflow:visible"
         id="use25-7"
         overflow="visible"
         xlink:href="#SVGID_3_" />
    </clipPath>
    <clipPath
       id="clipPath5007">
      <use
         height="100%"
         width="100%"
         y="0"
         x="0"
         style="overflow:visible"
         id="use5009"
         overflow="visible"
         xlink:href="#SVGID_3_" />
    </clipPath>
    <clipPath
       id="SVGID_2_-92">
      <use
         height="100%"
         width="100%"
         y="0"
         x="0"
         style="overflow:visible"
         id="use13-0"
         overflow="visible"
         xlink:href="#SVGID_1_" />
    </clipPath>
    <clipPath
       id="clipPath5013">
      <use
         height="100%"
         width="100%"
         y="0"
         x="0"
         style="overflow:visible"
         id="use5015"
         overflow="visible"
         xlink:href="#SVGID_1_" />
    </clipPath>
    <clipPath
       id="SVGID_6_-28">
      <use
         height="100%"
         width="100%"
         y="0"
         x="0"
         style="overflow:visible"
         id="use37-9"
         overflow="visible"
         xlink:href="#SVGID_5_" />
    </clipPath>
    <clipPath
       id="clipPath5001-7">
      <use
         height="100%"
         width="100%"
         y="0"
         x="0"
         style="overflow:visible"
         id="use5003-3"
         overflow="visible"
         xlink:href="#SVGID_5_" />
    </clipPath>
    <clipPath
       id="SVGID_4_-6">
      <use
         height="100%"
         width="100%"
         y="0"
         x="0"
         style="overflow:visible"
         id="use25-1"
         overflow="visible"
         xlink:href="#SVGID_3_" />
    </clipPath>
    <clipPath
       id="clipPath5007-2">
      <use
         height="100%"
         width="100%"
         y="0"
         x="0"
         style="overflow:visible"
         id="use5009-9"
         overflow="visible"
         xlink:href="#SVGID_3_" />
    </clipPath>
    <clipPath
       id="SVGID_2_-3">
      <use
         height="100%"
         width="100%"
         y="0"
         x="0"
         style="overflow:visible"
         id="use13-19"
         overflow="visible"
         xlink:href="#SVGID_1_" />
    </clipPath>
    <clipPath
       id="clipPath5013-4">
      <use
         height="100%"
         width="100%"
         y="0"
         x="0"
         style="overflow:visible"
         id="use5015-7"
         overflow="visible"
         xlink:href="#SVGID_1_" />
    </clipPath>
    <clipPath
       id="SVGID_6_-0">
      <use
         height="100%"
         width="100%"
         y="0"
         x="0"
         style="overflow:visible"
         id="use37-63"
         overflow="visible"
         xlink:href="#SVGID_5_" />
    </clipPath>
    <clipPath
       id="clipPath5125">
      <use
         height="100%"
         width="100%"
         y="0"
         x="0"
         style="overflow:visible"
         id="use5127"
         overflow="visible"
         xlink:href="#SVGID_5_" />
    </clipPath>
    <clipPath
       id="SVGID_4_-2">
      <use
         height="100%"
         width="100%"
         y="0"
         x="0"
         style="overflow:visible"
         id="use25-0"
         overflow="visible"
         xlink:href="#SVGID_3_" />
    </clipPath>
    <clipPath
       id="clipPath5131">
      <use
         height="100%"
         width="100%"
         y="0"
         x="0"
         style="overflow:visible"
         id="use5133"
         overflow="visible"
         xlink:href="#SVGID_3_" />
    </clipPath>
    <clipPath
       id="SVGID_2_-6">
      <use
         height="100%"
         width="100%"
         y="0"
         x="0"
         style="overflow:visible"
         id="use13-15"
         overflow="visible"
         xlink:href="#SVGID_1_" />
    </clipPath>
    <clipPath
       id="clipPath5137">
      <use
         height="100%"
         width="100%"
         y="0"
         x="0"
         style="overflow:visible"
         id="use5139"
         overflow="visible"
         xlink:href="#SVGID_1_" />
    </clipPath>
    <clipPath
       id="SVGID_6_-4">
      <use
         height="100%"
         width="100%"
         y="0"
         x="0"
         style="overflow:visible"
         id="use37-5"
         overflow="visible"
         xlink:href="#SVGID_5_" />
    </clipPath>
    <clipPath
       id="clipPath5125-2">
      <use
         height="100%"
         width="100%"
         y="0"
         x="0"
         style="overflow:visible"
         id="use5127-5"
         overflow="visible"
         xlink:href="#SVGID_5_" />
    </clipPath>
    <clipPath
       id="SVGID_4_-4">
      <use
         height="100%"
         width="100%"
         y="0"
         x="0"
         style="overflow:visible"
         id="use25-74"
         overflow="visible"
         xlink:href="#SVGID_3_" />
    </clipPath>
    <clipPath
       id="clipPath5131-4">
      <use
         height="100%"
         width="100%"
         y="0"
         x="0"
         style="overflow:visible"
         id="use5133-3"
         overflow="visible"
         xlink:href="#SVGID_3_" />
    </clipPath>
    <clipPath
       id="SVGID_2_-0">
      <use
         height="100%"
         width="100%"
         y="0"
         x="0"
         style="overflow:visible"
         id="use13-7"
         overflow="visible"
         xlink:href="#SVGID_1_" />
    </clipPath>
    <clipPath
       id="clipPath5137-8">
      <use
         height="100%"
         width="100%"
         y="0"
         x="0"
         style="overflow:visible"
         id="use5139-6"
         overflow="visible"
         xlink:href="#SVGID_1_" />
    </clipPath>
    <clipPath
       id="SVGID_6_-6">
      <use
         height="100%"
         width="100%"
         y="0"
         x="0"
         style="overflow:visible"
         id="use37-8"
         overflow="visible"
         xlink:href="#SVGID_5_" />
    </clipPath>
    <clipPath
       id="clipPath5125-9">
      <use
         height="100%"
         width="100%"
         y="0"
         x="0"
         style="overflow:visible"
         id="use5127-2"
         overflow="visible"
         xlink:href="#SVGID_5_" />
    </clipPath>
    <clipPath
       id="SVGID_4_-66">
      <use
         height="100%"
         width="100%"
         y="0"
         x="0"
         style="overflow:visible"
         id="use25-4"
         overflow="visible"
         xlink:href="#SVGID_3_" />
    </clipPath>
    <clipPath
       id="clipPath5131-9">
      <use
         height="100%"
         width="100%"
         y="0"
         x="0"
         style="overflow:visible"
         id="use5133-5"
         overflow="visible"
         xlink:href="#SVGID_3_" />
    </clipPath>
    <clipPath
       id="SVGID_2_-04">
      <use
         height="100%"
         width="100%"
         y="0"
         x="0"
         style="overflow:visible"
         id="use13-8"
         overflow="visible"
         xlink:href="#SVGID_1_" />
    </clipPath>
    <clipPath
       id="clipPath5137-7">
      <use
         height="100%"
         width="100%"
         y="0"
         x="0"
         style="overflow:visible"
         id="use5139-1"
         overflow="visible"
         xlink:href="#SVGID_1_" />
    </clipPath>
    <clipPath
       id="SVGID_6_-06">
      <use
         height="100%"
         width="100%"
         y="0"
         x="0"
         style="overflow:visible"
         id="use37-1"
         overflow="visible"
         xlink:href="#SVGID_5_" />
    </clipPath>
    <clipPath
       id="clipPath5125-5">
      <use
         height="100%"
         width="100%"
         y="0"
         x="0"
         style="overflow:visible"
         id="use5127-9"
         overflow="visible"
         xlink:href="#SVGID_5_" />
    </clipPath>
    <clipPath
       id="SVGID_4_-49">
      <use
         height="100%"
         width="100%"
         y="0"
         x="0"
         style="overflow:visible"
         id="use25-09"
         overflow="visible"
         xlink:href="#SVGID_3_" />
    </clipPath>
    <clipPath
       id="clipPath5131-1">
      <use
         height="100%"
         width="100%"
         y="0"
         x="0"
         style="overflow:visible"
         id="use5133-7"
         overflow="visible"
         xlink:href="#SVGID_3_" />
    </clipPath>
    <clipPath
       id="SVGID_2_-7">
      <use
         height="100%"
         width="100%"
         y="0"
         x="0"
         style="overflow:visible"
         id="use13-11"
         overflow="visible"
         xlink:href="#SVGID_1_" />
    </clipPath>
    <clipPath
       id="clipPath5137-5">
      <use
         height="100%"
         width="100%"
         y="0"
         x="0"
         style="overflow:visible"
         id="use5139-9"
         overflow="visible"
         xlink:href="#SVGID_1_" />
    </clipPath>
    <clipPath
       id="SVGID_6_-48">
      <use
         height="100%"
         width="100%"
         y="0"
         x="0"
         style="overflow:visible"
         id="use37-12"
         overflow="visible"
         xlink:href="#SVGID_5_" />
    </clipPath>
    <clipPath
       id="clipPath5125-93">
      <use
         height="100%"
         width="100%"
         y="0"
         x="0"
         style="overflow:visible"
         id="use5127-90"
         overflow="visible"
         xlink:href="#SVGID_5_" />
    </clipPath>
    <clipPath
       id="SVGID_4_-88">
      <use
         height="100%"
         width="100%"
         y="0"
         x="0"
         style="overflow:visible"
         id="use25-50"
         overflow="visible"
         xlink:href="#SVGID_3_" />
    </clipPath>
    <clipPath
       id="clipPath5131-96">
      <use
         height="100%"
         width="100%"
         y="0"
         x="0"
         style="overflow:visible"
         id="use5133-38"
         overflow="visible"
         xlink:href="#SVGID_3_" />
    </clipPath>
    <clipPath
       id="SVGID_2_-5">
      <use
         height="100%"
         width="100%"
         y="0"
         x="0"
         style="overflow:visible"
         id="use13-6"
         overflow="visible"
         xlink:href="#SVGID_1_" />
    </clipPath>
    <clipPath
       id="clipPath5137-1">
      <use
         height="100%"
         width="100%"
         y="0"
         x="0"
         style="overflow:visible"
         id="use5139-15"
         overflow="visible"
         xlink:href="#SVGID_1_" />
    </clipPath>
    <clipPath
       id="SVGID_4_-0">
      <use
         height="100%"
         width="100%"
         y="0"
         x="0"
         style="overflow:visible"
         id="use25-44"
         overflow="visible"
         xlink:href="#SVGID_3_" />
    </clipPath>
    <clipPath
       id="SVGID_4_-7">
      <use
         height="100%"
         width="100%"
         y="0"
         x="0"
         style="overflow:visible"
         id="use25-6"
         overflow="visible"
         xlink:href="#SVGID_3_" />
    </clipPath>
    <clipPath
       id="SVGID_4_-75">
      <use
         height="100%"
         width="100%"
         y="0"
         x="0"
         style="overflow:visible"
         id="use25-9"
         overflow="visible"
         xlink:href="#SVGID_3_" />
    </clipPath>
  </defs>
  <metadata
     id="metadata4368">
    <rdf:RDF>
      <cc:Work
         rdf:about="">
        <dc:format>image/svg+xml</dc:format>
        <dc:type
           rdf:resource="http://purl.org/dc/dcmitype/StillImage" />
        <dc:title></dc:title>
      </cc:Work>
    </rdf:RDF>
  </metadata>
  <g
     transform="translate(-405.983,-267.46677)"
     style="display:inline"
     id="layer1">
    <path
       transform="translate(-2.0869839,0.12025)"
       style="fill:#f68e50"
       id="path15"
       d="M 52.712,62.667 5.852,35.616 C 4.415,34.787 3.245,35.455 3.24,37.105 L 3.179,58.64 c -0.005,1.653 1.158,3.667 2.594,4.496 l 46.86,27.055 c 1.439,0.831 2.606,0.162 2.612,-1.491 l 0.06,-21.539 C 55.311,65.51 54.15,63.498 52.712,62.667"
       clip-path="url(#SVGID_2_)" />
    <path
       transform="translate(-2.0869839,0.12025)"
       style="fill:#f68e50"
       id="path17"
       d="M 52.62,94.975 5.76,67.92 C 4.324,67.091 3.153,67.758 3.148,69.409 L 3.087,90.946 c -0.005,1.653 1.157,3.668 2.594,4.498 l 46.86,27.053 c 1.439,0.831 2.607,0.161 2.612,-1.491 l 0.061,-21.537 c 0.005,-1.65 -1.154,-3.663 -2.594,-4.494"
       clip-path="url(#SVGID_2_)" />
    <path
       transform="translate(-2.0869839,0.12025)"
       style="fill:#bbd34a"
       id="path27"
       d="M 81.233,51.845 62.489,62.667 c -1.438,0.831 -2.599,2.843 -2.594,4.494 l 0.152,53.844 c 0.005,1.652 1.173,2.322 2.612,1.491 l 18.745,-10.821 c 1.438,-0.829 2.599,-2.843 2.594,-4.496 L 83.845,53.333 C 83.84,51.684 82.672,51.014 81.233,51.845"
       clip-path="url(#SVGID_4_)" />
    <path
       transform="translate(-2.0869839,0.12025)"
       style="fill:#bbd34a"
       id="path29"
       d="m 109.349,35.616 -18.744,10.82 c -1.436,0.829 -2.599,2.843 -2.595,4.493 l 0.152,53.846 c 0.006,1.652 1.176,2.319 2.612,1.491 l 18.744,-10.822 c 1.438,-0.831 2.6,-2.845 2.594,-4.498 L 111.96,37.104 c -0.003,-1.649 -1.171,-2.318 -2.611,-1.488"
       clip-path="url(#SVGID_4_)" />
    <path
       transform="translate(-2.0869839,0.12025)"
       style="fill:#29728d"
       id="path39"
       d="M 79.175,12.325 60.431,1.503 c -1.438,-0.831 -3.76,-0.831 -5.189,0 L 8.686,28.559 c -1.429,0.831 -1.422,2.175 0.017,3.005 l 18.744,10.822 c 1.437,0.828 3.76,0.829 5.189,-0.001 L 79.192,15.331 c 1.429,-0.83 1.419,-2.177 -0.017,-3.006"
       clip-path="url(#SVGID_6_)" />
    <path
       transform="translate(-2.0869839,0.12025)"
       style="fill:#29728d"
       id="path41"
       d="M 107.291,28.558 88.548,17.736 c -1.439,-0.83 -3.76,-0.83 -5.189,0 L 36.802,44.788 c -1.429,0.83 -1.422,2.173 0.018,3.004 l 18.744,10.823 c 1.435,0.829 3.759,0.83 5.188,0 l 46.556,-27.052 c 1.429,-0.83 1.419,-2.176 -0.017,-3.005"
       clip-path="url(#SVGID_6_)" />
    <path
       transform="translate(-2.0869839,0.12025)"
       style="fill:#f68e50"
       id="path15-0"
       d="M 52.712,62.667 5.852,35.616 C 4.415,34.787 3.245,35.455 3.24,37.105 L 3.179,58.64 c -0.005,1.653 1.158,3.667 2.594,4.496 l 46.86,27.055 c 1.439,0.831 2.606,0.162 2.612,-1.491 l 0.06,-21.539 C 55.311,65.51 54.15,63.498 52.712,62.667"
       clip-path="url(#SVGID_2_-9)" />
    <path
       transform="translate(-2.0869839,0.12025)"
       style="fill:#f68e50"
       id="path17-9"
       d="M 52.62,94.975 5.76,67.92 C 4.324,67.091 3.153,67.758 3.148,69.409 L 3.087,90.946 c -0.005,1.653 1.157,3.668 2.594,4.498 l 46.86,27.053 c 1.439,0.831 2.607,0.161 2.612,-1.491 l 0.061,-21.537 c 0.005,-1.65 -1.154,-3.663 -2.594,-4.494"
       clip-path="url(#SVGID_2_-9)" />
    <path
       transform="translate(-2.0869839,0.12025)"
       style="fill:#bbd34a"
       id="path27-3"
       d="M 81.233,51.845 62.489,62.667 c -1.438,0.831 -2.599,2.843 -2.594,4.494 l 0.152,53.844 c 0.005,1.652 1.173,2.322 2.612,1.491 l 18.745,-10.821 c 1.438,-0.829 2.599,-2.843 2.594,-4.496 L 83.845,53.333 C 83.84,51.684 82.672,51.014 81.233,51.845"
       clip-path="url(#SVGID_4_-3)" />
    <path
       transform="translate(-2.0869839,0.12025)"
       style="fill:#bbd34a"
       id="path29-6"
       d="m 109.349,35.616 -18.744,10.82 c -1.436,0.829 -2.599,2.843 -2.595,4.493 l 0.152,53.846 c 0.006,1.652 1.176,2.319 2.612,1.491 l 18.744,-10.822 c 1.438,-0.831 2.6,-2.845 2.594,-4.498 L 111.96,37.104 c -0.003,-1.649 -1.171,-2.318 -2.611,-1.488"
       clip-path="url(#SVGID_4_-3)" />
    <path
       transform="translate(-2.0869839,0.12025)"
       style="fill:#29728d"
       id="path39-0"
       d="M 79.175,12.325 60.431,1.503 c -1.438,-0.831 -3.76,-0.831 -5.189,0 L 8.686,28.559 c -1.429,0.831 -1.422,2.175 0.017,3.005 l 18.744,10.822 c 1.437,0.828 3.76,0.829 5.189,-0.001 L 79.192,15.331 c 1.429,-0.83 1.419,-2.177 -0.017,-3.006"
       clip-path="url(#SVGID_6_-3)" />
    <path
       transform="translate(-2.0869839,0.12025)"
       style="fill:#29728d"
       id="path41-6"
       d="M 107.291,28.558 88.548,17.736 c -1.439,-0.83 -3.76,-0.83 -5.189,0 L 36.802,44.788 c -1.429,0.83 -1.422,2.173 0.018,3.004 l 18.744,10.823 c 1.435,0.829 3.759,0.83 5.188,0 l 46.556,-27.052 c 1.429,-0.83 1.419,-2.176 -0.017,-3.005"
       clip-path="url(#SVGID_6_-3)" />
    <path
       transform="translate(-2.0869839,0.12025)"
       style="fill:#f68e50"
       id="path15-2"
       d="M 52.712,62.667 5.852,35.616 C 4.415,34.787 3.245,35.455 3.24,37.105 L 3.179,58.64 c -0.005,1.653 1.158,3.667 2.594,4.496 l 46.86,27.055 c 1.439,0.831 2.606,0.162 2.612,-1.491 l 0.06,-21.539 C 55.311,65.51 54.15,63.498 52.712,62.667"
       clip-path="url(#SVGID_2_-92)" />
    <path
       transform="translate(-2.0869839,0.12025)"
       style="fill:#f68e50"
       id="path17-3"
       d="M 52.62,94.975 5.76,67.92 C 4.324,67.091 3.153,67.758 3.148,69.409 L 3.087,90.946 c -0.005,1.653 1.157,3.668 2.594,4.498 l 46.86,27.053 c 1.439,0.831 2.607,0.161 2.612,-1.491 l 0.061,-21.537 c 0.005,-1.65 -1.154,-3.663 -2.594,-4.494"
       clip-path="url(#SVGID_2_-92)" />
    <path
       transform="translate(-2.0869839,0.12025)"
       style="fill:#bbd34a"
       id="path27-7"
       d="M 81.233,51.845 62.489,62.667 c -1.438,0.831 -2.599,2.843 -2.594,4.494 l 0.152,53.844 c 0.005,1.652 1.173,2.322 2.612,1.491 l 18.745,-10.821 c 1.438,-0.829 2.599,-2.843 2.594,-4.496 L 83.845,53.333 C 83.84,51.684 82.672,51.014 81.233,51.845"
       clip-path="url(#SVGID_4_-8)" />
    <path
       transform="translate(-2.0869839,0.12025)"
       style="fill:#bbd34a"
       id="path29-5"
       d="m 109.349,35.616 -18.744,10.82 c -1.436,0.829 -2.599,2.843 -2.595,4.493 l 0.152,53.846 c 0.006,1.652 1.176,2.319 2.612,1.491 l 18.744,-10.822 c 1.438,-0.831 2.6,-2.845 2.594,-4.498 L 111.96,37.104 c -0.003,-1.649 -1.171,-2.318 -2.611,-1.488"
       clip-path="url(#SVGID_4_-8)" />
    <path
       transform="translate(-2.0869839,0.12025)"
       style="fill:#29728d"
       id="path39-9"
       d="M 79.175,12.325 60.431,1.503 c -1.438,-0.831 -3.76,-0.831 -5.189,0 L 8.686,28.559 c -1.429,0.831 -1.422,2.175 0.017,3.005 l 18.744,10.822 c 1.437,0.828 3.76,0.829 5.189,-0.001 L 79.192,15.331 c 1.429,-0.83 1.419,-2.177 -0.017,-3.006"
       clip-path="url(#SVGID_6_-2)" />
    <path
       transform="translate(-2.0869839,0.12025)"
       style="fill:#29728d"
       id="path41-2"
       d="M 107.291,28.558 88.548,17.736 c -1.439,-0.83 -3.76,-0.83 -5.189,0 L 36.802,44.788 c -1.429,0.83 -1.422,2.173 0.018,3.004 l 18.744,10.823 c 1.435,0.829 3.759,0.83 5.188,0 l 46.556,-27.052 c 1.429,-0.83 1.419,-2.176 -0.017,-3.005"
       clip-path="url(#SVGID_6_-2)" />
    <path
       transform="translate(-2.0869839,0.12025)"
       style="fill:#f68e50"
       id="path15-8"
       d="M 52.712,62.667 5.852,35.616 C 4.415,34.787 3.245,35.455 3.24,37.105 L 3.179,58.64 c -0.005,1.653 1.158,3.667 2.594,4.496 l 46.86,27.055 c 1.439,0.831 2.606,0.162 2.612,-1.491 l 0.06,-21.539 C 55.311,65.51 54.15,63.498 52.712,62.667"
       clip-path="url(#SVGID_2_-3)" />
    <path
       transform="translate(-2.0869839,0.12025)"
       style="fill:#f68e50"
       id="path17-4"
       d="M 52.62,94.975 5.76,67.92 C 4.324,67.091 3.153,67.758 3.148,69.409 L 3.087,90.946 c -0.005,1.653 1.157,3.668 2.594,4.498 l 46.86,27.053 c 1.439,0.831 2.607,0.161 2.612,-1.491 l 0.061,-21.537 c 0.005,-1.65 -1.154,-3.663 -2.594,-4.494"
       clip-path="url(#SVGID_2_-3)" />
    <path
       transform="translate(-2.0869839,0.12025)"
       style="fill:#bbd34a"
       id="path27-5"
       d="M 81.233,51.845 62.489,62.667 c -1.438,0.831 -2.599,2.843 -2.594,4.494 l 0.152,53.844 c 0.005,1.652 1.173,2.322 2.612,1.491 l 18.745,-10.821 c 1.438,-0.829 2.599,-2.843 2.594,-4.496 L 83.845,53.333 C 83.84,51.684 82.672,51.014 81.233,51.845"
       clip-path="url(#SVGID_4_-6)" />
    <path
       transform="translate(-2.0869839,0.12025)"
       style="fill:#bbd34a"
       id="path29-0"
       d="m 109.349,35.616 -18.744,10.82 c -1.436,0.829 -2.599,2.843 -2.595,4.493 l 0.152,53.846 c 0.006,1.652 1.176,2.319 2.612,1.491 l 18.744,-10.822 c 1.438,-0.831 2.6,-2.845 2.594,-4.498 L 111.96,37.104 c -0.003,-1.649 -1.171,-2.318 -2.611,-1.488"
       clip-path="url(#SVGID_4_-6)" />
    <path
       transform="translate(-2.0869839,0.12025)"
       style="fill:#29728d"
       id="path39-3"
       d="M 79.175,12.325 60.431,1.503 c -1.438,-0.831 -3.76,-0.831 -5.189,0 L 8.686,28.559 c -1.429,0.831 -1.422,2.175 0.017,3.005 l 18.744,10.822 c 1.437,0.828 3.76,0.829 5.189,-0.001 L 79.192,15.331 c 1.429,-0.83 1.419,-2.177 -0.017,-3.006"
       clip-path="url(#SVGID_6_-28)" />
    <path
       transform="translate(-2.0869839,0.12025)"
       style="fill:#29728d"
       id="path41-61"
       d="M 107.291,28.558 88.548,17.736 c -1.439,-0.83 -3.76,-0.83 -5.189,0 L 36.802,44.788 c -1.429,0.83 -1.422,2.173 0.018,3.004 l 18.744,10.823 c 1.435,0.829 3.759,0.83 5.188,0 l 46.556,-27.052 c 1.429,-0.83 1.419,-2.176 -0.017,-3.005"
       clip-path="url(#SVGID_6_-28)" />
    <path
       transform="translate(-2.0869839,0.12025)"
       style="fill:#f68e50"
       id="path15-5"
       d="M 52.712,62.667 5.852,35.616 C 4.415,34.787 3.245,35.455 3.24,37.105 L 3.179,58.64 c -0.005,1.653 1.158,3.667 2.594,4.496 l 46.86,27.055 c 1.439,0.831 2.606,0.162 2.612,-1.491 l 0.06,-21.539 C 55.311,65.51 54.15,63.498 52.712,62.667"
       clip-path="url(#SVGID_2_-6)" />
    <path
       transform="translate(-2.0869839,0.12025)"
       style="fill:#f68e50"
       id="path17-47"
       d="M 52.62,94.975 5.76,67.92 C 4.324,67.091 3.153,67.758 3.148,69.409 L 3.087,90.946 c -0.005,1.653 1.157,3.668 2.594,4.498 l 46.86,27.053 c 1.439,0.831 2.607,0.161 2.612,-1.491 l 0.061,-21.537 c 0.005,-1.65 -1.154,-3.663 -2.594,-4.494"
       clip-path="url(#SVGID_2_-6)" />
    <path
       transform="translate(-2.0869839,0.12025)"
       style="fill:#bbd34a"
       id="path27-6"
       d="M 81.233,51.845 62.489,62.667 c -1.438,0.831 -2.599,2.843 -2.594,4.494 l 0.152,53.844 c 0.005,1.652 1.173,2.322 2.612,1.491 l 18.745,-10.821 c 1.438,-0.829 2.599,-2.843 2.594,-4.496 L 83.845,53.333 C 83.84,51.684 82.672,51.014 81.233,51.845"
       clip-path="url(#SVGID_4_-2)" />
    <path
       transform="translate(-2.0869839,0.12025)"
       style="fill:#bbd34a"
       id="path29-56"
       d="m 109.349,35.616 -18.744,10.82 c -1.436,0.829 -2.599,2.843 -2.595,4.493 l 0.152,53.846 c 0.006,1.652 1.176,2.319 2.612,1.491 l 18.744,-10.822 c 1.438,-0.831 2.6,-2.845 2.594,-4.498 L 111.96,37.104 c -0.003,-1.649 -1.171,-2.318 -2.611,-1.488"
       clip-path="url(#SVGID_4_-2)" />
    <path
       transform="translate(-2.0869839,0.12025)"
       style="fill:#29728d"
       id="path39-93"
       d="M 79.175,12.325 60.431,1.503 c -1.438,-0.831 -3.76,-0.831 -5.189,0 L 8.686,28.559 c -1.429,0.831 -1.422,2.175 0.017,3.005 l 18.744,10.822 c 1.437,0.828 3.76,0.829 5.189,-0.001 L 79.192,15.331 c 1.429,-0.83 1.419,-2.177 -0.017,-3.006"
       clip-path="url(#SVGID_6_-0)" />
    <path
       transform="translate(-2.0869839,0.12025)"
       style="fill:#29728d"
       id="path41-7"
       d="M 107.291,28.558 88.548,17.736 c -1.439,-0.83 -3.76,-0.83 -5.189,0 L 36.802,44.788 c -1.429,0.83 -1.422,2.173 0.018,3.004 l 18.744,10.823 c 1.435,0.829 3.759,0.83 5.188,0 l 46.556,-27.052 c 1.429,-0.83 1.419,-2.176 -0.017,-3.005"
       clip-path="url(#SVGID_6_-0)" />
    <path
       transform="translate(-2.0869839,0.12025)"
       style="fill:#f68e50"
       id="path15-88"
       d="M 52.712,62.667 5.852,35.616 C 4.415,34.787 3.245,35.455 3.24,37.105 L 3.179,58.64 c -0.005,1.653 1.158,3.667 2.594,4.496 l 46.86,27.055 c 1.439,0.831 2.606,0.162 2.612,-1.491 l 0.06,-21.539 C 55.311,65.51 54.15,63.498 52.712,62.667"
       clip-path="url(#SVGID_2_-0)" />
    <path
       transform="translate(-2.0869839,0.12025)"
       style="fill:#f68e50"
       id="path17-43"
       d="M 52.62,94.975 5.76,67.92 C 4.324,67.091 3.153,67.758 3.148,69.409 L 3.087,90.946 c -0.005,1.653 1.157,3.668 2.594,4.498 l 46.86,27.053 c 1.439,0.831 2.607,0.161 2.612,-1.491 l 0.061,-21.537 c 0.005,-1.65 -1.154,-3.663 -2.594,-4.494"
       clip-path="url(#SVGID_2_-0)" />
    <path
       transform="translate(-2.0869839,0.12025)"
       style="fill:#bbd34a"
       id="path27-1"
       d="M 81.233,51.845 62.489,62.667 c -1.438,0.831 -2.599,2.843 -2.594,4.494 l 0.152,53.844 c 0.005,1.652 1.173,2.322 2.612,1.491 l 18.745,-10.821 c 1.438,-0.829 2.599,-2.843 2.594,-4.496 L 83.845,53.333 C 83.84,51.684 82.672,51.014 81.233,51.845"
       clip-path="url(#SVGID_4_-4)" />
    <path
       transform="translate(-2.0869839,0.12025)"
       style="fill:#bbd34a"
       id="path29-4"
       d="m 109.349,35.616 -18.744,10.82 c -1.436,0.829 -2.599,2.843 -2.595,4.493 l 0.152,53.846 c 0.006,1.652 1.176,2.319 2.612,1.491 l 18.744,-10.822 c 1.438,-0.831 2.6,-2.845 2.594,-4.498 L 111.96,37.104 c -0.003,-1.649 -1.171,-2.318 -2.611,-1.488"
       clip-path="url(#SVGID_4_-4)" />
    <path
       transform="translate(-2.0869839,0.12025)"
       style="fill:#29728d"
       id="path39-92"
       d="M 79.175,12.325 60.431,1.503 c -1.438,-0.831 -3.76,-0.831 -5.189,0 L 8.686,28.559 c -1.429,0.831 -1.422,2.175 0.017,3.005 l 18.744,10.822 c 1.437,0.828 3.76,0.829 5.189,-0.001 L 79.192,15.331 c 1.429,-0.83 1.419,-2.177 -0.017,-3.006"
       clip-path="url(#SVGID_6_-4)" />
    <path
       transform="translate(-2.0869839,0.12025)"
       style="fill:#29728d"
       id="path41-0"
       d="M 107.291,28.558 88.548,17.736 c -1.439,-0.83 -3.76,-0.83 -5.189,0 L 36.802,44.788 c -1.429,0.83 -1.422,2.173 0.018,3.004 l 18.744,10.823 c 1.435,0.829 3.759,0.83 5.188,0 l 46.556,-27.052 c 1.429,-0.83 1.419,-2.176 -0.017,-3.005"
       clip-path="url(#SVGID_6_-4)" />
    <path
       transform="translate(-2.0869839,0.12025)"
       style="fill:#f68e50"
       id="path15-7"
       d="M 52.712,62.667 5.852,35.616 C 4.415,34.787 3.245,35.455 3.24,37.105 L 3.179,58.64 c -0.005,1.653 1.158,3.667 2.594,4.496 l 46.86,27.055 c 1.439,0.831 2.606,0.162 2.612,-1.491 l 0.06,-21.539 C 55.311,65.51 54.15,63.498 52.712,62.667"
       clip-path="url(#SVGID_2_-04)" />
    <path
       transform="translate(-2.0869839,0.12025)"
       style="fill:#f68e50"
       id="path17-2"
       d="M 52.62,94.975 5.76,67.92 C 4.324,67.091 3.153,67.758 3.148,69.409 L 3.087,90.946 c -0.005,1.653 1.157,3.668 2.594,4.498 l 46.86,27.053 c 1.439,0.831 2.607,0.161 2.612,-1.491 l 0.061,-21.537 c 0.005,-1.65 -1.154,-3.663 -2.594,-4.494"
       clip-path="url(#SVGID_2_-04)" />
    <path
       transform="translate(-2.0869839,0.12025)"
       style="fill:#bbd34a"
       id="path27-72"
       d="M 81.233,51.845 62.489,62.667 c -1.438,0.831 -2.599,2.843 -2.594,4.494 l 0.152,53.844 c 0.005,1.652 1.173,2.322 2.612,1.491 l 18.745,-10.821 c 1.438,-0.829 2.599,-2.843 2.594,-4.496 L 83.845,53.333 C 83.84,51.684 82.672,51.014 81.233,51.845"
       clip-path="url(#SVGID_4_-66)" />
    <path
       transform="translate(-2.0869839,0.12025)"
       style="fill:#bbd34a"
       id="path29-2"
       d="m 109.349,35.616 -18.744,10.82 c -1.436,0.829 -2.599,2.843 -2.595,4.493 l 0.152,53.846 c 0.006,1.652 1.176,2.319 2.612,1.491 l 18.744,-10.822 c 1.438,-0.831 2.6,-2.845 2.594,-4.498 L 111.96,37.104 c -0.003,-1.649 -1.171,-2.318 -2.611,-1.488"
       clip-path="url(#SVGID_4_-66)" />
    <path
       transform="translate(-2.0869839,0.12025)"
       style="fill:#29728d"
       id="path39-6"
       d="M 79.175,12.325 60.431,1.503 c -1.438,-0.831 -3.76,-0.831 -5.189,0 L 8.686,28.559 c -1.429,0.831 -1.422,2.175 0.017,3.005 l 18.744,10.822 c 1.437,0.828 3.76,0.829 5.189,-0.001 L 79.192,15.331 c 1.429,-0.83 1.419,-2.177 -0.017,-3.006"
       clip-path="url(#SVGID_6_-6)" />
    <path
       transform="translate(-2.0869839,0.12025)"
       style="fill:#29728d"
       id="path41-1"
       d="M 107.291,28.558 88.548,17.736 c -1.439,-0.83 -3.76,-0.83 -5.189,0 L 36.802,44.788 c -1.429,0.83 -1.422,2.173 0.018,3.004 l 18.744,10.823 c 1.435,0.829 3.759,0.83 5.188,0 l 46.556,-27.052 c 1.429,-0.83 1.419,-2.176 -0.017,-3.005"
       clip-path="url(#SVGID_6_-6)" />
    <path
       transform="translate(-2.0869839,0.12025)"
       style="fill:#f68e50"
       id="path15-77"
       d="M 52.712,62.667 5.852,35.616 C 4.415,34.787 3.245,35.455 3.24,37.105 L 3.179,58.64 c -0.005,1.653 1.158,3.667 2.594,4.496 l 46.86,27.055 c 1.439,0.831 2.606,0.162 2.612,-1.491 l 0.06,-21.539 C 55.311,65.51 54.15,63.498 52.712,62.667"
       clip-path="url(#SVGID_2_-7)" />
    <path
       transform="translate(-2.0869839,0.12025)"
       style="fill:#f68e50"
       id="path17-6"
       d="M 52.62,94.975 5.76,67.92 C 4.324,67.091 3.153,67.758 3.148,69.409 L 3.087,90.946 c -0.005,1.653 1.157,3.668 2.594,4.498 l 46.86,27.053 c 1.439,0.831 2.607,0.161 2.612,-1.491 l 0.061,-21.537 c 0.005,-1.65 -1.154,-3.663 -2.594,-4.494"
       clip-path="url(#SVGID_2_-7)" />
    <path
       transform="translate(-2.0869839,0.12025)"
       style="fill:#bbd34a"
       id="path27-73"
       d="M 81.233,51.845 62.489,62.667 c -1.438,0.831 -2.599,2.843 -2.594,4.494 l 0.152,53.844 c 0.005,1.652 1.173,2.322 2.612,1.491 l 18.745,-10.821 c 1.438,-0.829 2.599,-2.843 2.594,-4.496 L 83.845,53.333 C 83.84,51.684 82.672,51.014 81.233,51.845"
       clip-path="url(#SVGID_4_-49)" />
    <path
       transform="translate(-2.0869839,0.12025)"
       style="fill:#bbd34a"
       id="path29-65"
       d="m 109.349,35.616 -18.744,10.82 c -1.436,0.829 -2.599,2.843 -2.595,4.493 l 0.152,53.846 c 0.006,1.652 1.176,2.319 2.612,1.491 l 18.744,-10.822 c 1.438,-0.831 2.6,-2.845 2.594,-4.498 L 111.96,37.104 c -0.003,-1.649 -1.171,-2.318 -2.611,-1.488"
       clip-path="url(#SVGID_4_-49)" />
    <path
       transform="translate(-2.0869839,0.12025)"
       style="fill:#29728d"
       id="path39-63"
       d="M 79.175,12.325 60.431,1.503 c -1.438,-0.831 -3.76,-0.831 -5.189,0 L 8.686,28.559 c -1.429,0.831 -1.422,2.175 0.017,3.005 l 18.744,10.822 c 1.437,0.828 3.76,0.829 5.189,-0.001 L 79.192,15.331 c 1.429,-0.83 1.419,-2.177 -0.017,-3.006"
       clip-path="url(#SVGID_6_-06)" />
    <path
       transform="translate(-2.0869839,0.12025)"
       style="fill:#29728d"
       id="path41-9"
       d="M 107.291,28.558 88.548,17.736 c -1.439,-0.83 -3.76,-0.83 -5.189,0 L 36.802,44.788 c -1.429,0.83 -1.422,2.173 0.018,3.004 l 18.744,10.823 c 1.435,0.829 3.759,0.83 5.188,0 l 46.556,-27.052 c 1.429,-0.83 1.419,-2.176 -0.017,-3.005"
       clip-path="url(#SVGID_6_-06)" />
    <path
       transform="translate(-2.0869839,0.12025)"
       style="fill:#f68e50"
       id="path15-9"
       d="M 52.712,62.667 5.852,35.616 C 4.415,34.787 3.245,35.455 3.24,37.105 L 3.179,58.64 c -0.005,1.653 1.158,3.667 2.594,4.496 l 46.86,27.055 c 1.439,0.831 2.606,0.162 2.612,-1.491 l 0.06,-21.539 C 55.311,65.51 54.15,63.498 52.712,62.667"
       clip-path="url(#SVGID_2_-5)" />
    <path
       transform="translate(-2.0869839,0.12025)"
       style="fill:#f68e50"
       id="path17-8"
       d="M 52.62,94.975 5.76,67.92 C 4.324,67.091 3.153,67.758 3.148,69.409 L 3.087,90.946 c -0.005,1.653 1.157,3.668 2.594,4.498 l 46.86,27.053 c 1.439,0.831 2.607,0.161 2.612,-1.491 l 0.061,-21.537 c 0.005,-1.65 -1.154,-3.663 -2.594,-4.494"
       clip-path="url(#SVGID_2_-5)" />
    <path
       transform="translate(-2.0869839,0.12025)"
       style="fill:#bbd34a"
       id="path27-4"
       d="M 81.233,51.845 62.489,62.667 c -1.438,0.831 -2.599,2.843 -2.594,4.494 l 0.152,53.844 c 0.005,1.652 1.173,2.322 2.612,1.491 l 18.745,-10.821 c 1.438,-0.829 2.599,-2.843 2.594,-4.496 L 83.845,53.333 C 83.84,51.684 82.672,51.014 81.233,51.845"
       clip-path="url(#SVGID_4_-88)" />
    <path
       transform="translate(-2.0869839,0.12025)"
       style="fill:#bbd34a"
       id="path29-8"
       d="m 109.349,35.616 -18.744,10.82 c -1.436,0.829 -2.599,2.843 -2.595,4.493 l 0.152,53.846 c 0.006,1.652 1.176,2.319 2.612,1.491 l 18.744,-10.822 c 1.438,-0.831 2.6,-2.845 2.594,-4.498 L 111.96,37.104 c -0.003,-1.649 -1.171,-2.318 -2.611,-1.488"
       clip-path="url(#SVGID_4_-88)" />
    <path
       transform="translate(-2.0869839,0.12025)"
       style="fill:#29728d"
       id="path39-1"
       d="M 79.175,12.325 60.431,1.503 c -1.438,-0.831 -3.76,-0.831 -5.189,0 L 8.686,28.559 c -1.429,0.831 -1.422,2.175 0.017,3.005 l 18.744,10.822 c 1.437,0.828 3.76,0.829 5.189,-0.001 L 79.192,15.331 c 1.429,-0.83 1.419,-2.177 -0.017,-3.006"
       clip-path="url(#SVGID_6_-48)" />
    <path
       transform="translate(-2.0869839,0.12025)"
       style="fill:#29728d"
       id="path41-03"
       d="M 107.291,28.558 88.548,17.736 c -1.439,-0.83 -3.76,-0.83 -5.189,0 L 36.802,44.788 c -1.429,0.83 -1.422,2.173 0.018,3.004 l 18.744,10.823 c 1.435,0.829 3.759,0.83 5.188,0 l 46.556,-27.052 c 1.429,-0.83 1.419,-2.176 -0.017,-3.005"
       clip-path="url(#SVGID_6_-48)" />
    <path
       transform="translate(-2.0869839,0.12025)"
       style="fill:#bbd34a"
       id="path27-44"
       d="M 81.233,51.845 62.489,62.667 c -1.438,0.831 -2.599,2.843 -2.594,4.494 l 0.152,53.844 c 0.005,1.652 1.173,2.322 2.612,1.491 l 18.745,-10.821 c 1.438,-0.829 2.599,-2.843 2.594,-4.496 L 83.845,53.333 C 83.84,51.684 82.672,51.014 81.233,51.845"
       clip-path="url(#SVGID_4_-0)" />
    <path
       transform="translate(-2.0869839,0.12025)"
       style="fill:#bbd34a"
       id="path27-31"
       d="M 81.233,51.845 62.489,62.667 c -1.438,0.831 -2.599,2.843 -2.594,4.494 l 0.152,53.844 c 0.005,1.652 1.173,2.322 2.612,1.491 l 18.745,-10.821 c 1.438,-0.829 2.599,-2.843 2.594,-4.496 L 83.845,53.333 C 83.84,51.684 82.672,51.014 81.233,51.845"
       clip-path="url(#SVGID_4_-7)" />
    <path
       transform="translate(-2.0869839,0.12025)"
       style="fill:#bbd34a"
       id="path27-62"
       d="M 81.233,51.845 62.489,62.667 c -1.438,0.831 -2.599,2.843 -2.594,4.494 l 0.152,53.844 c 0.005,1.652 1.173,2.322 2.612,1.491 l 18.745,-10.821 c 1.438,-0.829 2.599,-2.843 2.594,-4.496 L 83.845,53.333 C 83.84,51.684 82.672,51.014 81.233,51.845"
       clip-path="url(#SVGID_4_-75)" />
    <path
       id="path15-1"
       d="m 459.15132,332.79733 -46.86,-27.051 c -1.437,-0.829 -2.607,-0.161 -2.612,1.489 l -0.061,21.535 c -0.005,1.653 1.158,3.667 2.594,4.496 l 46.86,27.055 c 1.439,0.831 2.606,0.162 2.612,-1.491 l 0.06,-21.539 c 0.006,-1.651 -1.155,-3.663 -2.593,-4.494"
       style="fill:#f68e50" />
    <path
       id="path17-7"
       d="m 459.05932,365.10533 -46.86,-27.055 c -1.436,-0.829 -2.607,-0.162 -2.612,1.489 l -0.061,21.537 c -0.005,1.653 1.157,3.668 2.594,4.498 l 46.86,27.053 c 1.439,0.831 2.607,0.161 2.612,-1.491 l 0.061,-21.537 c 0.005,-1.65 -1.154,-3.663 -2.594,-4.494"
       style="fill:#f68e50" />
    <path
       id="path27-8"
       d="m 487.67232,321.97533 -18.744,10.822 c -1.438,0.831 -2.599,2.843 -2.594,4.494 l 0.152,53.844 c 0.005,1.652 1.173,2.322 2.612,1.491 l 18.745,-10.821 c 1.438,-0.829 2.599,-2.843 2.594,-4.496 l -0.153,-53.846 c -0.005,-1.649 -1.173,-2.319 -2.612,-1.488"
       style="fill:#bbd34a" />
    <path
       id="path29-57"
       d="m 515.78833,305.74633 -18.74401,10.82 c -1.436,0.829 -2.599,2.843 -2.595,4.493 l 0.152,53.846 c 0.006,1.652 1.176,2.319 2.612,1.491 l 18.74401,-10.822 c 1.438,-0.831 2.6,-2.845 2.594,-4.498 l -0.152,-53.842 c -0.003,-1.649 -1.171,-2.318 -2.611,-1.488"
       style="fill:#bbd34a" />
    <path
       id="path39-4"
       d="m 485.61432,282.45533 -18.744,-10.822 c -1.438,-0.831 -3.76,-0.831 -5.189,0 l -46.556,27.056 c -1.429,0.831 -1.422,2.175 0.017,3.005 l 18.744,10.822 c 1.437,0.828 3.76,0.829 5.189,-10e-4 l 46.556,-27.054 c 1.429,-0.83 1.419,-2.177 -0.017,-3.006"
       style="fill:#29728d" />
    <path
       id="path41-18"
       d="m 513.73033,298.68833 -18.74301,-10.822 c -1.439,-0.83 -3.76,-0.83 -5.189,0 l -46.557,27.052 c -1.429,0.83 -1.422,2.173 0.018,3.004 l 18.744,10.823 c 1.435,0.829 3.759,0.83 5.188,0 l 46.55601,-27.052 c 1.429,-0.83 1.419,-2.176 -0.017,-3.005"
       style="fill:#29728d" />
  </g>
</svg>
