<svg height="36.423824mm" viewBox="0 0 116.11166 129.06079" width="32.769291mm" xmlns="http://www.w3.org/2000/svg">
<g transform="translate(-405.983 -267.46677)">
<path d="m459.15132 332.79733l-46.86-27.051c-1.437-.829-2.607-.161-2.612 1.489l-.061 21.535c-.005 1.653 1.158 3.667 2.594 4.496l46.86 27.055c1.439.831 2.606.162 2.612-1.491l.06-21.539c.006-1.651-1.155-3.663-2.593-4.494" fill="#f68e50"/>
<path d="m459.05932 365.10533l-46.86-27.055c-1.436-.829-2.607-.162-2.612 1.489l-.061 21.537c-.005 1.653 1.157 3.668 2.594 4.498l46.86 27.053c1.439.831 2.607.161 2.612-1.491l.061-21.537c.005-1.65-1.154-3.663-2.594-4.494" fill="#f68e50"/>
<path d="m487.67232 321.97533l-18.744 10.822c-1.438.831-2.599 2.843-2.594 4.494l.152 53.844c.005 1.652 1.173 2.322 2.612 1.491l18.745-10.821c1.438-.829 2.599-2.843 2.594-4.496l-.153-53.846c-.005-1.649-1.173-2.319-2.612-1.488" fill="#bbd34a"/>
<path d="m515.78833 305.74633l-18.74401 10.82c-1.436.829-2.599 2.843-2.595 4.493l.152 53.846c.006 1.652 1.176 2.319 2.612 1.491l18.74401-10.822c1.438-.831 2.6-2.845 2.594-4.498l-.152-53.842c-.003-1.649-1.171-2.318-2.611-1.488" fill="#bbd34a"/>
<path d="m485.61432 282.45533l-18.744-10.822c-1.438-.831-3.76-.831-5.189 0l-46.556 27.056c-1.429.831-1.422 2.175.017 3.005l18.744 10.822c1.437.828 3.76.829 5.189-.001l46.556-27.054c1.429-.83 1.419-2.177-.017-3.006" fill="#29728d"/>
<path d="m513.73033 298.68833l-18.74301-10.822c-1.439-.83-3.76-.83-5.189 0l-46.557 27.052c-1.429.83-1.422 2.173.018 3.004l18.744 10.823c1.435.829 3.759.83 5.188 0l46.55601-27.052c1.429-.83 1.419-2.176-.017-3.005" fill="#29728d"/>
</g>
</svg>
